<?xml version="1.0" encoding="UTF-8" standalone="no"?>
<svg
   xmlns:dc="http://purl.org/dc/elements/1.1/"
   xmlns:cc="http://creativecommons.org/ns#"
   xmlns:rdf="http://www.w3.org/1999/02/22-rdf-syntax-ns#"
   xmlns:svg="http://www.w3.org/2000/svg"
   xmlns="http://www.w3.org/2000/svg"
   viewBox="0 0 3779.5332 1650.5732"
   height="1650.5732"
   width="3779.5332"
   xml:space="preserve"
   id="svg2"
   version="1.1"><metadata
     id="metadata8"><rdf:RDF><cc:Work
         rdf:about=""><dc:format>image/svg+xml</dc:format><dc:type
           rdf:resource="http://purl.org/dc/dcmitype/StillImage" /></cc:Work></rdf:RDF></metadata><defs
     id="defs6"><clipPath
       id="clipPath22"
       clipPathUnits="userSpaceOnUse"><path
         id="path20"
         d="M 0,1237.931 H 2834.646 V 0 H 0 Z" /></clipPath></defs><g
     transform="matrix(1.3333333,0,0,-1.3333333,0,1650.5733)"
     id="g10"><g
       transform="translate(256.3335,170.637)"
       id="g12"><path
         id="path14"
         style="fill:#010101;fill-opacity:1;fill-rule:nonzero;stroke:none"
         d="m 0,0 h -27.294 l 1.941,9.933 H 40.77 L 38.714,0 H 11.42 L -2.628,-70.004 h -11.305 z" /></g><g
       id="g16"><g
         clip-path="url(#clipPath22)"
         id="g18"><g
           transform="translate(335.3596,161.7299)"
           id="g24"><path
             id="path26"
             style="fill:#010101;fill-opacity:1;fill-rule:nonzero;stroke:none"
             d="m 0,0 -2.056,-10.625 c -1.029,0.119 -1.714,0.119 -2.855,0.119 -12.104,0 -20.1,-6.397 -22.84,-20.33 l -6.052,-30.261 h -10.963 l 11.989,60.525 h 10.509 l -1.713,-9.023 C -18.502,-2.743 -10.851,0 0,0" /></g><g
           transform="translate(350.434,179.4288)"
           id="g28"><path
             id="path30"
             style="fill:#010101;fill-opacity:1;fill-rule:nonzero;stroke:none"
             d="m 0,0 c 0,4.227 3.197,7.651 7.881,7.651 3.996,0 6.963,-2.971 6.963,-6.394 0,-4.681 -3.309,-7.882 -7.993,-7.882 C 2.855,-6.625 0,-3.654 0,0 M -1.829,-18.271 H 9.138 L -2.855,-78.796 h -10.963 z" /></g><g
           transform="translate(402.5121,136.7187)"
           id="g32"><path
             id="path34"
             style="fill:#010101;fill-opacity:1;fill-rule:nonzero;stroke:none"
             d="M 0,0 H 30.718 L 28.777,-9.48 H -1.829 Z" /></g><g
           transform="translate(480.5086,126.4399)"
           id="g36"><path
             id="path38"
             style="fill:#010101;fill-opacity:1;fill-rule:nonzero;stroke:none"
             d="m 0,0 c 0,2.743 0.342,5.599 0.914,8.68 l 9.023,45.45 h 11.42 L 12.219,8.796 C 11.647,6.056 11.42,3.543 11.42,1.257 c 0,-11.763 6.967,-17.815 19.643,-17.815 14.16,0 22.725,7.881 26.264,25.465 L 66.35,54.13 H 77.539 L 68.405,8.108 C 63.721,-15.186 50.703,-26.721 30.034,-26.721 11.078,-26.721 0,-16.669 0,0" /></g><g
           transform="translate(628.8546,141.6295)"
           id="g40"><path
             id="path42"
             style="fill:#010101;fill-opacity:1;fill-rule:nonzero;stroke:none"
             d="M 0,0 C 0,-2.167 -0.227,-4.569 -0.684,-7.082 L -7.42,-40.996 h -10.963 l 6.736,33.914 c 0.342,1.829 0.573,3.543 0.573,5.026 0,7.881 -4.569,12.335 -14.049,12.335 -11.762,0 -19.754,-6.283 -22.383,-19.301 L -53.9,-40.996 h -10.963 l 11.989,60.524 h 10.51 l -1.487,-7.766 c 5.594,5.71 13.249,8.338 21.925,8.338 C -8.219,20.1 0,12.903 0,0" /></g><g
           transform="translate(655.5795,179.4288)"
           id="g44"><path
             id="path46"
             style="fill:#010101;fill-opacity:1;fill-rule:nonzero;stroke:none"
             d="m 0,0 c 0,4.227 3.197,7.651 7.881,7.651 3.996,0 6.963,-2.971 6.963,-6.394 0,-4.681 -3.309,-7.882 -7.993,-7.882 C 2.855,-6.625 0,-3.654 0,0 M -1.829,-18.271 H 9.138 L -2.855,-78.796 h -10.963 z" /></g><g
           transform="translate(689.8398,119.9306)"
           id="g48"><path
             id="path50"
             style="fill:#010101;fill-opacity:1;fill-rule:nonzero;stroke:none"
             d="m 0,0 c -0.227,-1.141 -0.342,-2.167 -0.342,-3.197 0,-4.68 2.513,-7.535 7.993,-7.535 2.97,0 6.167,1.026 8.68,2.855 l 2.282,-8.339 c -4.111,-2.855 -9.249,-3.765 -14.044,-3.765 -9.48,0 -15.989,5.71 -15.989,15.185 0,1.372 0.115,2.971 0.457,4.569 l 6.509,32.432 h -10.278 l 1.713,9.022 H -2.625 L 0,54.476 H 10.963 L 8.338,41.227 H 25.695 L 23.866,32.205 H 6.509 Z" /></g><g
           transform="translate(730.6094,135.4622)"
           id="g52"><path
             id="path54"
             style="fill:#010101;fill-opacity:1;fill-rule:nonzero;stroke:none"
             d="M 0,0 H 39.056 C 39.625,11.078 32.547,17.13 21.81,17.13 10.848,17.13 2.74,10.506 0,0 m -1.141,-7.993 v -0.684 c 0,-11.078 6.167,-17.245 19.186,-17.245 7.535,0 14.386,2.74 18.725,6.967 l 4.684,-7.881 c -5.937,-5.595 -15.075,-8.677 -24.324,-8.677 -17.929,0 -29.007,10.275 -29.007,26.264 0,20.558 14.39,35.517 34.145,35.517 16.331,0 27.067,-9.822 27.067,-26.153 0,-2.855 -0.346,-5.595 -0.8,-8.108 z" /></g><g
           transform="translate(841.2675,135.1202)"
           id="g56"><path
             id="path58"
             style="fill:#010101;fill-opacity:1;fill-rule:nonzero;stroke:none"
             d="m 0,0 c 0,10.736 -6.509,17.015 -18.041,17.015 -13.591,0 -23.639,-10.621 -23.639,-25.58 0,-10.621 6.509,-17.015 18.044,-17.015 C -9.933,-25.58 0,-14.959 0,0 M 21.242,50.245 4.342,-34.487 H -6.164 l 1.484,7.424 c -5.368,-5.142 -12.677,-8.108 -21.357,-8.108 -15.417,0 -26.721,9.822 -26.721,26.149 0,20.784 14.617,35.632 34.26,35.632 10.39,0 18.044,-3.77 21.925,-10.967 l 6.852,34.602 z" /></g><g
           transform="translate(899.6282,133.4064)"
           id="g60"><path
             id="path62"
             style="fill:#010101;fill-opacity:1;fill-rule:nonzero;stroke:none"
             d="m 0,0 c 0,26.61 19.071,48.078 48.989,48.078 13.249,0 23.87,-4.453 29.349,-12.446 L 70.115,28.55 c -4.68,6.052 -11.989,9.365 -21.925,9.365 -22.725,0 -36.77,-17.131 -36.77,-37.227 0,-14.506 9.48,-24.212 27.521,-24.212 9.706,0 17.929,3.197 24.212,9.479 l 6.62,-7.539 C 62.353,-29.691 50.933,-33.688 38.141,-33.688 14.048,-33.688 0,-19.985 0,0" /></g><g
           transform="translate(1029.9296,135.1202)"
           id="g64"><path
             id="path66"
             style="fill:#010101;fill-opacity:1;fill-rule:nonzero;stroke:none"
             d="m 0,0 c 0,10.736 -6.509,17.015 -18.041,17.015 -13.591,0 -23.639,-10.621 -23.639,-25.58 0,-10.621 6.509,-17.015 18.044,-17.015 C -9.933,-25.58 0,-14.959 0,0 m -52.758,-9.022 c 0,20.442 14.847,35.632 35.516,35.632 17.242,0 28.32,-10.164 28.32,-26.038 0,-20.557 -14.732,-35.743 -35.401,-35.743 -17.242,0 -28.435,10.39 -28.435,26.149" /></g><g
           transform="translate(1114.6658,141.6295)"
           id="g68"><path
             id="path70"
             style="fill:#010101;fill-opacity:1;fill-rule:nonzero;stroke:none"
             d="M 0,0 C 0,-2.167 -0.227,-4.569 -0.684,-7.082 L -7.42,-40.996 h -10.963 l 6.736,33.914 c 0.342,1.829 0.573,3.543 0.573,5.026 0,7.881 -4.569,12.335 -14.049,12.335 -11.762,0 -19.754,-6.283 -22.383,-19.301 L -53.9,-40.996 h -10.963 l 11.993,60.524 h 10.506 l -1.487,-7.766 c 5.598,5.71 13.249,8.338 21.925,8.338 C -8.219,20.1 0,12.903 0,0" /></g><g
           transform="translate(1143.7885,119.9306)"
           id="g72"><path
             id="path74"
             style="fill:#010101;fill-opacity:1;fill-rule:nonzero;stroke:none"
             d="m 0,0 c -0.227,-1.141 -0.342,-2.167 -0.342,-3.197 0,-4.68 2.513,-7.535 7.993,-7.535 2.97,0 6.167,1.026 8.68,2.855 l 2.282,-8.339 c -4.111,-2.855 -9.249,-3.765 -14.044,-3.765 -9.48,0 -15.989,5.71 -15.989,15.185 0,1.372 0.115,2.971 0.457,4.569 l 6.51,32.432 h -10.279 l 1.713,9.022 H -2.625 L 0,54.476 H 10.963 L 8.338,41.227 H 25.695 L 23.866,32.205 H 6.509 Z" /></g><g
           transform="translate(1219.6176,161.7299)"
           id="g76"><path
             id="path78"
             style="fill:#010101;fill-opacity:1;fill-rule:nonzero;stroke:none"
             d="m 0,0 -2.056,-10.625 c -1.029,0.119 -1.714,0.119 -2.855,0.119 -12.104,0 -20.1,-6.397 -22.84,-20.33 l -6.052,-30.261 h -10.963 l 11.993,60.525 h 10.505 l -1.713,-9.023 C -18.502,-2.743 -10.848,0 0,0" /></g><g
           transform="translate(1272.9485,135.1202)"
           id="g80"><path
             id="path82"
             style="fill:#010101;fill-opacity:1;fill-rule:nonzero;stroke:none"
             d="m 0,0 c 0,10.736 -6.509,17.015 -18.041,17.015 -13.591,0 -23.639,-10.621 -23.639,-25.58 0,-10.621 6.509,-17.015 18.044,-17.015 C -9.933,-25.58 0,-14.959 0,0 M 16.331,26.037 4.342,-34.487 H -6.164 l 1.484,7.424 c -5.368,-5.142 -12.677,-8.108 -21.357,-8.108 -15.417,0 -26.721,9.822 -26.721,26.149 0,20.784 14.617,35.632 34.26,35.632 10.39,0 17.929,-3.77 21.81,-10.852 l 2.056,10.279 z" /></g><g
           transform="translate(1298.075,126.0979)"
           id="g84"><path
             id="path86"
             style="fill:#010101;fill-opacity:1;fill-rule:nonzero;stroke:none"
             d="m 0,0 c 0,20.442 14.848,35.632 35.632,35.632 11.647,0 20.212,-4.342 24.892,-13.134 l -9.249,-5.141 c -3.197,5.825 -8.68,8.68 -16.442,8.68 -13.707,0 -23.755,-10.621 -23.755,-25.58 0,-10.621 6.509,-17.015 18.156,-17.015 7.197,0 13.818,2.855 18.045,8.565 l 7.992,-5.71 C 49.677,-21.468 39.628,-26.149 28.777,-26.149 11.193,-26.149 0,-15.758 0,0" /></g><g
           transform="translate(1380.4133,119.9306)"
           id="g88"><path
             id="path90"
             style="fill:#010101;fill-opacity:1;fill-rule:nonzero;stroke:none"
             d="m 0,0 c -0.227,-1.141 -0.342,-2.167 -0.342,-3.197 0,-4.68 2.513,-7.535 7.993,-7.535 2.97,0 6.167,1.026 8.68,2.855 l 2.283,-8.339 c -4.112,-2.855 -9.25,-3.765 -14.045,-3.765 -9.48,0 -15.989,5.71 -15.989,15.185 0,1.372 0.115,2.971 0.457,4.569 l 6.51,32.432 h -10.279 l 1.713,9.022 H -2.625 L 0,54.476 H 10.963 L 8.338,41.227 H 25.695 L 23.866,32.205 H 6.509 Z" /></g><g
           transform="translate(1425.2946,179.4288)"
           id="g92"><path
             id="path94"
             style="fill:#010101;fill-opacity:1;fill-rule:nonzero;stroke:none"
             d="m 0,0 c 0,4.227 3.197,7.651 7.881,7.651 3.996,0 6.963,-2.971 6.963,-6.394 0,-4.681 -3.309,-7.882 -7.993,-7.882 C 2.855,-6.625 0,-3.654 0,0 M -1.825,-18.271 H 9.134 L -2.855,-78.796 h -10.963 z" /></g><g
           transform="translate(1508.2017,141.6295)"
           id="g96"><path
             id="path98"
             style="fill:#010101;fill-opacity:1;fill-rule:nonzero;stroke:none"
             d="M 0,0 C 0,-2.167 -0.227,-4.569 -0.684,-7.082 L -7.42,-40.996 h -10.963 l 6.736,33.914 c 0.342,1.829 0.573,3.543 0.573,5.026 0,7.881 -4.569,12.335 -14.049,12.335 -11.762,0 -19.754,-6.283 -22.383,-19.301 L -53.9,-40.996 h -10.963 l 11.989,60.524 h 10.51 l -1.487,-7.766 c 5.594,5.71 13.249,8.338 21.925,8.338 C -8.219,20.1 0,12.903 0,0" /></g><g
           transform="translate(1574.5513,136.4882)"
           id="g100"><path
             id="path102"
             style="fill:#010101;fill-opacity:1;fill-rule:nonzero;stroke:none"
             d="m 0,0 c 0,9.71 -6.621,15.647 -18.041,15.647 -13.818,0 -23.755,-9.937 -23.755,-23.64 0,-9.817 6.74,-15.758 18.045,-15.758 C -9.933,-23.751 0,-13.814 0,0 M 16.788,24.669 6.398,-27.632 c -4.342,-21.926 -16.104,-31.063 -36.201,-31.063 -11.535,0 -21.126,3.085 -27.636,8.565 l 6.052,8.45 c 4.681,-4.339 12.904,-7.309 22.383,-7.309 14.275,0 21.469,6.509 24.093,19.643 l 0.915,4.339 c -5.48,-5.253 -12.904,-8.335 -21.926,-8.335 -15.989,0 -26.952,9.364 -26.952,24.665 0,19.186 14.275,33.919 34.491,33.919 9.933,0 18.613,-3.658 22.61,-11.651 l 2.171,11.078 z" /></g><g
           transform="translate(1633.3691,133.4064)"
           id="g104"><path
             id="path106"
             style="fill:#010101;fill-opacity:1;fill-rule:nonzero;stroke:none"
             d="m 0,0 c 0,26.61 19.071,48.078 48.989,48.078 13.249,0 23.87,-4.453 29.35,-12.446 L 70.115,28.55 c -4.68,6.052 -11.988,9.365 -21.925,9.365 -22.725,0 -36.77,-17.131 -36.77,-37.227 0,-14.506 9.48,-24.212 27.521,-24.212 9.706,0 17.929,3.197 24.212,9.479 l 6.62,-7.539 C 62.353,-29.691 50.933,-33.688 38.141,-33.688 14.048,-33.688 0,-19.985 0,0" /></g><g
           transform="translate(1763.6705,135.1202)"
           id="g108"><path
             id="path110"
             style="fill:#010101;fill-opacity:1;fill-rule:nonzero;stroke:none"
             d="m 0,0 c 0,10.736 -6.509,17.015 -18.041,17.015 -13.591,0 -23.639,-10.621 -23.639,-25.58 0,-10.621 6.509,-17.015 18.044,-17.015 C -9.933,-25.58 0,-14.959 0,0 m -52.758,-9.022 c 0,20.442 14.847,35.632 35.516,35.632 17.242,0 28.32,-10.164 28.32,-26.038 0,-20.557 -14.732,-35.743 -35.401,-35.743 -17.242,0 -28.435,10.39 -28.435,26.149" /></g><g
           transform="translate(1778.4028,107.2577)"
           id="g112"><path
             id="path114"
             style="fill:#010101;fill-opacity:1;fill-rule:nonzero;stroke:none"
             d="m 0,0 c 0,4.911 3.654,8.335 8.108,8.335 4.111,0 7.197,-3.082 7.197,-7.424 0,-4.907 -3.77,-8.22 -7.996,-8.22 C 3.197,-7.309 0,-4.112 0,0" /></g><g
           transform="translate(1222.7924,715.7903)"
           id="g116"><path
             id="path118"
             style="fill:#010101;fill-opacity:1;fill-rule:nonzero;stroke:none"
             d="m 0,0 h -189.629 l 34.227,169.279 H 442.157 L 407.93,0 H 218.301 L 123.026,-478.231 H -95.275 Z" /></g><g
           transform="translate(1961.2805,716.7196)"
           id="g120"><path
             id="path122"
             style="fill:#010101;fill-opacity:1;fill-rule:nonzero;stroke:none"
             d="m 0,0 h -73.078 l -30.524,-151.703 h 89.725 c 60.126,0 95.279,31.45 95.279,86.023 C 81.402,-19.427 49.952,0 0,0 M 127.651,-290.454 235.878,-479.161 H 9.249 l -91.576,162.804 h -53.651 l -32.375,-162.804 H -386.655 L -257.153,168.35 H 33.301 c 171.127,0 269.179,-78.625 269.179,-212.752 0,-115.628 -64.751,-204.431 -174.829,-246.052" /></g><g
           transform="translate(2368.4038,885.0693)"
           id="g124"><path
             id="path126"
             style="fill:#010101;fill-opacity:1;fill-rule:nonzero;stroke:none"
             d="M 0,0 H 218.302 L 88.8,-647.51 h -218.302 z" /></g><g
           transform="translate(2621.6399,1038.661)"
           id="g128"><path
             id="path130"
             style="fill:#889676;fill-opacity:1;fill-rule:nonzero;stroke:none"
             d="m 0,0 c 0,-67.09 -54.387,-121.477 -121.477,-121.477 -67.09,0 -121.477,54.387 -121.477,121.477 0,67.09 54.387,121.477 121.477,121.477 C -54.387,121.477 0,67.09 0,0" /></g><g
           transform="translate(448.8192,239.65)"
           id="g132"><path
             id="path134"
             style="fill:#889676;fill-opacity:1;fill-rule:nonzero;stroke:none"
             d="m 0,0 c 0,0 -204.44,25.913 -165.311,214.707 12.715,61.345 74.78,360.798 74.78,360.798 H 33.943 L -36.26,236.786 c 0,0 -57.545,-236.502 175.15,-236.502 91.74,0 251.34,50.484 294.827,260.3 12.577,60.683 44.602,215.199 44.602,215.199 h 67.427 l 35.048,169.1 H 287.599 c -21.024,0 -41.6,-17.043 -45.957,-38.067 L 163.305,228.853 c 0,0 -25.903,-95.78 -54.568,-95.78 0,0 102.494,-10.515 134.401,143.431 13.635,65.785 61.971,299.001 61.971,299.001 h 193.482 l -9.406,-45.384 h -31.343 c -21.024,0 -41.599,-17.043 -45.957,-38.067 L 356.856,226.545 c 0,0 -40.254,-155.945 -189.782,-155.945 C 17.545,70.6 29.388,215.765 29.388,215.765 l 89.11,429.943 h -225.677 c -21.024,0 -41.599,-17.043 -45.957,-38.067 L -231.068,231.63 c 0,0 -4.236,-16.937 -4.704,-41.651 C -237.033,123.298 -210.856,0 0,0" /></g><g
           transform="translate(2326.4263,965.451)"
           id="g136"><path
             id="path138"
             style="fill:#889676;fill-opacity:1;fill-rule:nonzero;stroke:none"
             d="m 0,0 h -2007.311 l 9.975,36.802 c 4.807,17.736 20.904,30.05 39.28,30.05 H 14.224 Z" /></g></g></g></g></svg>